<?xml version="1.0" encoding="UTF-8" standalone="no"?>
<svg
   xmlns:dc="http://purl.org/dc/elements/1.1/"
   xmlns:cc="http://creativecommons.org/ns#"
   xmlns:rdf="http://www.w3.org/1999/02/22-rdf-syntax-ns#"
   xmlns:svg="http://www.w3.org/2000/svg"
   xmlns="http://www.w3.org/2000/svg"
   xmlns:sodipodi="http://sodipodi.sourceforge.net/DTD/sodipodi-0.dtd"
   xmlns:inkscape="http://www.inkscape.org/namespaces/inkscape"
   version="1.1"
   width="24"
   height="24"
   viewBox="0 0 24 24"
   id="svg1410"
   sodipodi:docname="apple-finder.svg"
   inkscape:version="0.92.3 (2405546, 2018-03-11)">
  <metadata
     id="metadata1416">
    <rdf:RDF>
      <cc:Work
         rdf:about="">
        <dc:format>image/svg+xml</dc:format>
        <dc:type
           rdf:resource="http://purl.org/dc/dcmitype/StillImage" />
      </cc:Work>
    </rdf:RDF>
  </metadata>
  <defs
     id="defs1414" />
  <sodipodi:namedview
     pagecolor="#ffffff"
     bordercolor="#666666"
     borderopacity="1"
     objecttolerance="10"
     gridtolerance="10"
     guidetolerance="10"
     inkscape:pageopacity="0"
     inkscape:pageshadow="2"
     inkscape:window-width="730"
     inkscape:window-height="1081"
     id="namedview1412"
     showgrid="false"
     inkscape:zoom="9.8333333"
     inkscape:cx="12"
     inkscape:cy="12"
     inkscape:window-x="0"
     inkscape:window-y="481"
     inkscape:window-maximized="0"
     inkscape:current-layer="svg1410" />
  <path
     d="M4,4H11.89C12.46,2.91 13.13,1.88 13.93,1L15.04,2.11C14.61,2.7 14.23,3.34 13.89,4H20A2,2 0 0,1 22,6V19A2,2 0 0,1 20,21H14.93L15.26,22.23L13.43,22.95L12.93,21H4A2,2 0 0,1 2,19V6A2,2 0 0,1 4,4M4,6V19H12.54C12.5,18.67 12.44,18.34 12.4,18C12.27,18 12.13,18 12,18C9.25,18 6.78,17.5 5.13,16.76L6.04,15.12C7,15.64 9.17,16 12,16C12.08,16 12.16,16 12.24,16C12.21,15.33 12.22,14.66 12.27,14H9C9,14 9.4,9.97 11,6H4M20,19V6H13C12.1,8.22 11.58,10.46 11.3,12H14.17C14,13.28 13.97,14.62 14.06,15.93C15.87,15.8 17.25,15.5 17.96,15.12L18.87,16.76C17.69,17.3 16.1,17.7 14.29,17.89C14.35,18.27 14.41,18.64 14.5,19H20M6,8H8V11H6V8M16,8H18V11H16V8Z"
     id="path1408"
     style="fill:#c36037;fill-opacity:1" />
</svg>
